<svg xmlns="http://www.w3.org/2000/svg" viewBox="0 0 57.67 60.63"><defs><style>.cls-1{fill:red;}</style></defs><g id="Layer_2" data-name="Layer 2"><g id="Layer_1-2" data-name="Layer 1"><path class="cls-1" d="M42.91,14.36h0a8.47,8.47,0,0,1,12,0l.28.27a8.49,8.49,0,1,1-12,12l-.27-.27A8.49,8.49,0,0,1,42.91,14.36Z"/><path class="cls-1" d="M32.88,45.87h0a8.49,8.49,0,0,1,12,0l.28.27a8.49,8.49,0,0,1-12,12l-.27-.28A8.49,8.49,0,0,1,32.88,45.87Z"/><path class="cls-1" d="M2.49,11.11h0a8.47,8.47,0,0,1,12,0l.27.27a8.49,8.49,0,0,1-12,12l-.27-.27A8.47,8.47,0,0,1,2.49,11.11Z"/><path class="cls-1" d="M5.55,34.43h0a8.49,8.49,0,0,1,12,0l.27.27a8.49,8.49,0,0,1-12,12l-.28-.27A8.49,8.49,0,0,1,5.55,34.43Z"/><path class="cls-1" d="M22.8,2.49h0a8.47,8.47,0,0,1,12,0l.27.27a8.49,8.49,0,0,1-12,12l-.27-.27A8.49,8.49,0,0,1,22.8,2.49Z"/><path class="cls-1" d="M22.7,25.8h0a8.49,8.49,0,0,1,12,0l.27.27a8.49,8.49,0,1,1-12,12l-.27-.28A8.47,8.47,0,0,1,22.7,25.8Z"/></g></g></svg>